<?xml version="1.0" encoding="UTF-8"?>
<svg xmlns="http://www.w3.org/2000/svg" xmlns:xlink="http://www.w3.org/1999/xlink" version="1.1" width="512" height="512" x="0" y="0" viewBox="0 0 682.667 682.667" style="enable-background:new 0 0 512 512" xml:space="preserve" class="">
  <g>
    <defs>
      <clipPath id="a">
        <path d="M0 512h512V0H0Z" fill="#a28ad0" opacity="1" data-original="#000000"/>
      </clipPath>
    </defs>
    <g clip-path="url(#a)" transform="matrix(1.33333 0 0 -1.33333 0 682.667)">
      <path d="M0 0v52.93c0 35.22 23.03 66.29 56.72 76.54l38.59 11.74" style="stroke-width:15;stroke-linecap:round;stroke-linejoin:round;stroke-miterlimit:10;stroke-dasharray:none;stroke-opacity:1" transform="translate(55.18 7.5)" fill="none" stroke="#a28ad0" stroke-width="15" stroke-linecap="round" stroke-linejoin="round" stroke-miterlimit="10" stroke-dasharray="none" stroke-opacity="" data-original="#000000" opacity="1" class=""/>
      <path d="m0 0 38.59-11.74c33.69-10.25 56.72-41.32 56.72-76.54v-52.93" style="stroke-width:15;stroke-linecap:round;stroke-linejoin:round;stroke-miterlimit:10;stroke-dasharray:none;stroke-opacity:1" transform="translate(361.51 148.71)" fill="none" stroke="#a28ad0" stroke-width="15" stroke-linecap="round" stroke-linejoin="round" stroke-miterlimit="10" stroke-dasharray="none" stroke-opacity="" data-original="#000000" opacity="1" class=""/>
      <path d="M0 0a7.5 7.5 0 1 0-15 0A7.5 7.5 0 0 0 0 0" style="fill-opacity:1;fill-rule:nonzero;stroke:none" transform="translate(263.5 52.5)" fill="#a28ad0" data-original="#000000" opacity="1"/>
      <path d="M0 0a7.5 7.5 0 1 0-15 0A7.5 7.5 0 0 0 0 0" style="fill-opacity:1;fill-rule:nonzero;stroke:none" transform="translate(263.5 7.5)" fill="#a28ad0" data-original="#000000" opacity="1"/>
      <path d="M0 0c10.04-2.01 23.45 7.16 35 5.3 11.01-1.77 21.78-16.65 33.91-16.65 12.13 0 22.9 14.88 33.91 16.65 11.55 1.86 24.97-7.32 35-5.3" style="stroke-width:15;stroke-linecap:round;stroke-linejoin:round;stroke-miterlimit:10;stroke-dasharray:none;stroke-opacity:1" transform="translate(187.09 108.42)" fill="none" stroke="#a28ad0" stroke-width="15" stroke-linecap="round" stroke-linejoin="round" stroke-miterlimit="10" stroke-dasharray="none" stroke-opacity="" data-original="#000000" opacity="1" class=""/>
      <path d="M0 0a84.277 84.277 0 0 0-11.205 6.352c-21.79 14.67-31.42 35.99-37.42 58.8" style="stroke-width:15;stroke-linecap:round;stroke-linejoin:round;stroke-miterlimit:10;stroke-dasharray:none;stroke-opacity:1" transform="translate(344.845 95.278)" fill="none" stroke="#a28ad0" stroke-width="15" stroke-linecap="round" stroke-linejoin="round" stroke-miterlimit="10" stroke-dasharray="none" stroke-opacity="" data-original="#000000" opacity="1" class=""/>
      <path d="M0 0c5.89-16.2 5.57-34.65 5.44-42.09-.17-9.96-1.74-18.59-3.53-25.41-.83-3.15-4.86-4.06-6.95-1.56-3.8 4.56-7.6 9.12-11.4 13.69-1.97 2.36-5.75 1.71-6.83-1.17-3.53-9.45-6.27-20.85-6.42-33.76-.55-48.13 35.37-81.97 51.83-94.98 2.76-2.18 1.56-6.61-1.93-7.09-6.421-.879-14.986-1.528-24.599-.814" style="stroke-width:15;stroke-linecap:round;stroke-linejoin:round;stroke-miterlimit:10;stroke-dasharray:none;stroke-opacity:1" transform="translate(382.65 279.95)" fill="none" stroke="#a28ad0" stroke-width="15" stroke-linecap="round" stroke-linejoin="round" stroke-miterlimit="10" stroke-dasharray="none" stroke-opacity="" data-original="#000000" opacity="1" class=""/>
      <path d="M0 0c-5.9-16.21-5.58-34.66-5.45-42.1.17-9.96 1.74-18.59 3.53-25.41.83-3.15 4.86-4.06 6.95-1.56 3.8 4.56 7.6 9.12 11.4 13.69 1.97 2.36 5.75 1.71 6.83-1.17 3.53-9.45 6.27-20.85 6.42-33.76.55-48.13-35.36-81.97-51.83-94.98-2.76-2.18-1.56-6.61 1.93-7.09 15.64-2.14 44-2.92 69.22 14.05 21.73 14.62 31.36 35.87 37.37 58.6" style="stroke-width:15;stroke-linecap:round;stroke-linejoin:round;stroke-miterlimit:10;stroke-dasharray:none;stroke-opacity:1" transform="translate(129.36 279.96)" fill="none" stroke="#a28ad0" stroke-width="15" stroke-linecap="round" stroke-linejoin="round" stroke-miterlimit="10" stroke-dasharray="none" stroke-opacity="" data-original="#000000" opacity="1" class=""/>
      <path d="M0 0c-2.97-16.45-5.92-32.88-8.88-49.33-6.73-37.42-32.57-68.57-68.1-82.09a24.27 24.27 0 0 0-17.28 0l-.52.2a108.329 108.329 0 0 0-67.95 81.26L-172.14.13" style="stroke-width:15;stroke-linecap:round;stroke-linejoin:round;stroke-miterlimit:10;stroke-dasharray:none;stroke-opacity:1" transform="translate(341.62 273.19)" fill="none" stroke="#a28ad0" stroke-width="15" stroke-linecap="round" stroke-linejoin="round" stroke-miterlimit="10" stroke-dasharray="none" stroke-opacity="" data-original="#000000" opacity="1" class=""/>
      <path d="M0 0c-3.048-1.398-8.924-3.601-16.558-3.385A37.216 37.216 0 0 0-31.016 0" style="stroke-width:15;stroke-linecap:round;stroke-linejoin:round;stroke-miterlimit:10;stroke-dasharray:none;stroke-opacity:1" transform="translate(272.762 184.606)" fill="none" stroke="#a28ad0" stroke-width="15" stroke-linecap="round" stroke-linejoin="round" stroke-miterlimit="10" stroke-dasharray="none" stroke-opacity="" data-original="#000000" opacity="1" class=""/>
      <path d="M0 0v-15.523" style="stroke-width:15;stroke-linecap:round;stroke-linejoin:round;stroke-miterlimit:10;stroke-dasharray:none;stroke-opacity:1" transform="translate(299.878 247.73)" fill="none" stroke="#a28ad0" stroke-width="15" stroke-linecap="round" stroke-linejoin="round" stroke-miterlimit="10" stroke-dasharray="none" stroke-opacity="" data-original="#000000" opacity="1" class=""/>
      <path d="M0 0v-15.523" style="stroke-width:15;stroke-linecap:round;stroke-linejoin:round;stroke-miterlimit:10;stroke-dasharray:none;stroke-opacity:1" transform="translate(212.122 247.73)" fill="none" stroke="#a28ad0" stroke-width="15" stroke-linecap="round" stroke-linejoin="round" stroke-miterlimit="10" stroke-dasharray="none" stroke-opacity="" data-original="#000000" opacity="1" class=""/>
      <path d="M0 0h46.38C61.34 0 73.5-12.06 73.63-27.02v-.1c.14-6.76-4.46-12.72-11.04-14.27A653.529 653.529 0 0 0-77.35-58.68a654.155 654.155 0 0 0-159.74 17.4c-6.37 1.5-10.91 7.14-11.04 13.69v.11C-248.26-12.34-236.03 0-220.89 0h46.84" style="stroke-width:15;stroke-linecap:round;stroke-linejoin:round;stroke-miterlimit:10;stroke-dasharray:none;stroke-opacity:1" transform="translate(343.02 326.31)" fill="none" stroke="#a28ad0" stroke-width="15" stroke-linecap="round" stroke-linejoin="round" stroke-miterlimit="10" stroke-dasharray="none" stroke-opacity="" data-original="#000000" opacity="1" class=""/>
      <path d="m0 0-4.519 11.146" style="stroke-width:15;stroke-linecap:round;stroke-linejoin:round;stroke-miterlimit:10;stroke-dasharray:none;stroke-opacity:1" transform="translate(285.005 454.972)" fill="none" stroke="#a28ad0" stroke-width="15" stroke-linecap="round" stroke-linejoin="round" stroke-miterlimit="10" stroke-dasharray="none" stroke-opacity="" data-original="#000000" opacity="1" class=""/>
      <path d="M0 0v42.698" style="stroke-width:15;stroke-linecap:round;stroke-linejoin:round;stroke-miterlimit:10;stroke-dasharray:none;stroke-opacity:1" transform="translate(381.818 7.5)" fill="none" stroke="#a28ad0" stroke-width="15" stroke-linecap="round" stroke-linejoin="round" stroke-miterlimit="10" stroke-dasharray="none" stroke-opacity="" data-original="#000000" opacity="1" class=""/>
      <path d="M0 0v42.698" style="stroke-width:15;stroke-linecap:round;stroke-linejoin:round;stroke-miterlimit:10;stroke-dasharray:none;stroke-opacity:1" transform="translate(130.182 7.5)" fill="none" stroke="#a28ad0" stroke-width="15" stroke-linecap="round" stroke-linejoin="round" stroke-miterlimit="10" stroke-dasharray="none" stroke-opacity="" data-original="#000000" opacity="1" class=""/>
      <path d="M0 0a247.512 247.512 0 0 1 75.2-11.97c31.94-.1 58.52 6.01 77.62 12.27" style="stroke-width:15;stroke-linecap:round;stroke-linejoin:round;stroke-miterlimit:10;stroke-dasharray:none;stroke-opacity:1" transform="translate(180.05 354.677)" fill="none" stroke="#a28ad0" stroke-width="15" stroke-linecap="round" stroke-linejoin="round" stroke-miterlimit="10" stroke-dasharray="none" stroke-opacity="" data-original="#000000" opacity="1" class=""/>
      <path d="M0 0c-4.865-9.025-9.74-18.04-14.514-27.086l-19.113-36.221c-1.823-4.607.541-9.805 5.214-11.45a247.248 247.248 0 0 1 81.296-14.03c34.921-.105 63.444 7.219 82.786 14.029 4.674 1.645 7.04 6.843 5.217 11.451L82.635 58.413l33.25 43.079c2.231 2.89-.258 7.012-3.854 6.384l-26.473-4.619C57.557 98.371 39.03 77.22 27.269 52.67c-3.491-7.287-7.12-14.515-10.833-21.707" style="stroke-width:15;stroke-linecap:round;stroke-linejoin:round;stroke-miterlimit:10;stroke-dasharray:none;stroke-opacity:1" transform="translate(202.37 396.56)" fill="none" stroke="#a28ad0" stroke-width="15" stroke-linecap="round" stroke-linejoin="round" stroke-miterlimit="10" stroke-dasharray="none" stroke-opacity="" data-original="#000000" opacity="1" class=""/>
    </g>
  </g>
</svg>
