<?xml version="1.0" encoding="UTF-8"?>
<svg xmlns="http://www.w3.org/2000/svg" xmlns:xlink="http://www.w3.org/1999/xlink" version="1.1" width="512" height="512" x="0" y="0" viewBox="0 0 682.667 682.667" style="enable-background:new 0 0 512 512" xml:space="preserve" class="">
  <g>
    <defs>
      <clipPath id="a">
        <path d="M0 512h512V0H0Z" fill="#a28ad0" opacity="1" data-original="#000000"/>
      </clipPath>
    </defs>
    <g clip-path="url(#a)" transform="matrix(1.33333 0 0 -1.33333 0 682.667)">
      <path d="M0 0c-44.566-37.235-100.231-57.507-159.013-57.507-66.377 0-128.78 25.849-175.716 72.784-46.935 46.936-72.784 109.339-72.784 175.716 0 66.377 25.849 128.78 72.784 175.716 46.936 46.936 109.339 72.784 175.716 72.784 66.377 0 128.781-25.848 175.716-72.784 46.936-46.936 72.784-109.339 72.784-175.716 0-62.264-22.745-121.034-64.305-166.818" style="stroke-width:15;stroke-linecap:round;stroke-linejoin:round;stroke-miterlimit:10;stroke-dasharray:none;stroke-opacity:1" transform="translate(415.013 65.007)" fill="none" stroke="#a28ad0" stroke-width="15" stroke-linecap="round" stroke-linejoin="round" stroke-miterlimit="10" stroke-dasharray="none" stroke-opacity="" data-original="#000000" opacity="1"/>
      <path d="M0 0c0-114.558-92.868-207.426-207.426-207.426-114.558 0-207.426 92.868-207.426 207.426 0 114.558 92.868 207.426 207.426 207.426C-92.868 207.426 0 114.558 0 0Z" style="stroke-width:15;stroke-linecap:round;stroke-linejoin:round;stroke-miterlimit:10;stroke-dasharray:none;stroke-opacity:1" transform="translate(463.426 256)" fill="none" stroke="#a28ad0" stroke-width="15" stroke-linecap="round" stroke-linejoin="round" stroke-miterlimit="10" stroke-dasharray="none" stroke-opacity="" data-original="#000000" opacity="1"/>
      <path d="M0 0c6.42 15.859 15.797 31.086 28.411 45.021 2.793 3.085 7.631 3.101 10.428.019C77.518 2.412 87.978-56.689 70.212-108.233c-25.354-73.56-108.631-117.338-182.003-99.092-4.129 1.027-6.417 5.47-4.828 9.417 23.183 57.554 79.273 96.165 142.531 96.165 63.45 0 121.196-39.872 143.625-98.966 1.589-4.188-1.16-8.787-5.599-9.395C51.763-225.456-22.955-126.931-9.225-33.956" style="stroke-width:15;stroke-linecap:round;stroke-linejoin:round;stroke-miterlimit:10;stroke-dasharray:none;stroke-opacity:1" transform="translate(229.545 376.21)" fill="none" stroke="#a28ad0" stroke-width="15" stroke-linecap="round" stroke-linejoin="round" stroke-miterlimit="10" stroke-dasharray="none" stroke-opacity="" data-original="#000000" opacity="1"/>
      <path d="M0 0c0-14.912-12.088-27-27-27S-54-14.912-54 0s12.088 27 27 27S0 14.912 0 0Z" style="stroke-width:15;stroke-linecap:round;stroke-linejoin:round;stroke-miterlimit:10;stroke-dasharray:none;stroke-opacity:1" transform="translate(395.5 308.5)" fill="none" stroke="#a28ad0" stroke-width="15" stroke-linecap="round" stroke-linejoin="round" stroke-miterlimit="10" stroke-dasharray="none" stroke-opacity="" data-original="#000000" opacity="1"/>
      <path d="M0 0c0-14.912-12.088-27-27-27S-54-14.912-54 0s12.088 27 27 27S0 14.912 0 0Z" style="stroke-width:15;stroke-linecap:round;stroke-linejoin:round;stroke-miterlimit:10;stroke-dasharray:none;stroke-opacity:1" transform="translate(283 128.5)" fill="none" stroke="#a28ad0" stroke-width="15" stroke-linecap="round" stroke-linejoin="round" stroke-miterlimit="10" stroke-dasharray="none" stroke-opacity="" data-original="#000000" opacity="1"/>
      <path d="M0 0c0-14.912-12.088-27-27-27S-54-14.912-54 0s12.088 27 27 27S0 14.912 0 0Z" style="stroke-width:15;stroke-linecap:round;stroke-linejoin:round;stroke-miterlimit:10;stroke-dasharray:none;stroke-opacity:1" transform="translate(170.5 308.5)" fill="none" stroke="#a28ad0" stroke-width="15" stroke-linecap="round" stroke-linejoin="round" stroke-miterlimit="10" stroke-dasharray="none" stroke-opacity="" data-original="#000000" opacity="1"/>
    </g>
  </g>
</svg>
